# xmcd
#
# Track frame offsets:
#	150
#	12425
#	23066
#	34176
#	51542
#	61465
#	69780
#	76877
#	83882
#	96950
#	104443
#	117278
#	130578
#	140364
#	150664
#	165551
#	184197
#	198110
#	215625
#	226785
#
# Disc length: 3259 seconds
#
# Revision: 1
# Processed by: cddbd v1.4PL0 Copyright (c) Steve Scherf et al.
# Submitted via: audiograbber 1.81.02
#
DISCID=070cb914
DTITLE=Various Artist - If Kisses Could Talk
DYEAR=2003
DGENRE=Country
TTITLE0=Owen Priester Jr. - If Kisses Could Talk
TTITLE1=Everett Corbin - He's An Unknown Superstar
TTITLE2=Vernon Oxford - I Love To Sing
TTITLE3=Vernon Oxford - The Great Stone Face
TTITLE4=Vernon Oxford - I Think Living Is Sweet
TTITLE5=Dick Flood - Ole Lady Blues
TTITLE6=Randy Fincher - Slippin' Kisses
TTITLE7=Everett Corbin - Lay That Pistol Down
TTITLE8=Everett Corbin - A Blanket Of Stars
TTITLE9=Everett Corbin - Death And Taxes
TTITLE10=Diane Carnes - I've Lost Him To A Honky Tonk
TTITLE11=Jo Anne Marvec - I Don't Want The Ring
TTITLE12=Carl Story - Green Pastures And Blue Skies
TTITLE13=Sjirley Lee - Do You Have A Hankerchief To Spare
TTITLE14=Earth Man - Solution To Pollution
TTITLE15=Speer - The Blue Snow Of Winter
TTITLE16=Speer - Make An Appointment
TTITLE17=The Plowman - Mama Pulled The Plough
TTITLE18=Speer - Please Put Down The Toilet Seat
TTITLE19=Cowboy Jack - I Ain't Gonna Put No Diapers On My Horse
EXTD=
EXTT0=
EXTT1=
EXTT2=
EXTT3=
EXTT4=
EXTT5=
EXTT6=
EXTT7=
EXTT8=
EXTT9=
EXTT10=
EXTT11=
EXTT12=
EXTT13=
EXTT14=
EXTT15=
EXTT16=
EXTT17=
EXTT18=
EXTT19=
PLAYORDER=
